<svg width="281" height="71" viewBox="0 0 281 71" fill="none" xmlns="http://www.w3.org/2000/svg">
<path d="M0.472 69H-1.528V71H0.472V69ZM0.472 1.8V-0.200005H-1.528V1.8H0.472ZM49.048 4.872L48.2262 6.69538L48.2357 6.69962L49.048 4.872ZM59.704 13.704L58.0271 14.794L58.0313 14.8004L58.0356 14.8069L59.704 13.704ZM59.704 40.584L58.0356 39.4811L58.0356 39.4811L59.704 40.584ZM49.048 49.416L49.8698 51.2394L49.8813 51.2341L49.048 49.416ZM13.048 52.488L11.6615 51.0466L8.08381 54.488H13.048V52.488ZM23.128 42.792H25.128V38.0931L21.7415 41.3506L23.128 42.792ZM23.128 69V71H25.128V69H23.128ZM23.128 45.288L21.7005 46.6888L25.128 50.1816V45.288H23.128ZM13.048 35.016V33.016H8.28327L11.6205 36.4168L13.048 35.016ZM38.296 32.904L36.9446 31.4297L36.9289 31.444L36.9136 31.4587L38.296 32.904ZM38.296 21.384L36.9136 22.8293L36.9289 22.844L36.9446 22.8583L38.296 21.384ZM13.048 19.272L11.6205 17.8712L8.28327 21.272H13.048V19.272ZM23.128 9H25.128V4.10641L21.7005 7.59919L23.128 9ZM2.472 69V1.8H-1.528V69H2.472ZM0.472 3.8H32.824V-0.200005H0.472V3.8ZM32.824 3.8C38.8835 3.8 43.9982 4.78976 48.2262 6.69536L49.8698 3.04863C45.0098 0.858228 39.3085 -0.200005 32.824 -0.200005V3.8ZM48.2357 6.69962C52.5273 8.607 55.763 11.3107 58.0271 14.794L61.3809 12.614C58.653 8.41727 54.7847 5.23299 49.8603 3.04437L48.2357 6.69962ZM58.0356 14.8069C60.2851 18.21 61.448 22.2936 61.448 27.144H65.448C65.448 21.6264 64.1149 16.75 61.3724 12.6011L58.0356 14.8069ZM61.448 27.144C61.448 31.9944 60.2851 36.078 58.0356 39.4811L61.3724 41.6869C64.1149 37.538 65.448 32.6616 65.448 27.144H61.448ZM58.0356 39.4811C55.7697 42.909 52.5249 45.6224 48.2147 47.5979L49.8813 51.2341C54.7871 48.9856 58.6463 45.811 61.3724 41.6869L58.0356 39.4811ZM48.2262 47.5926C43.9982 49.4982 38.8835 50.488 32.824 50.488V54.488C39.3085 54.488 45.0098 53.4298 49.8698 51.2394L48.2262 47.5926ZM32.824 50.488H13.048V54.488H32.824V50.488ZM14.4345 53.9294L24.5145 44.2334L21.7415 41.3506L11.6615 51.0466L14.4345 53.9294ZM21.128 42.792V69H25.128V42.792H21.128ZM23.128 67H0.472V71H23.128V67ZM24.5555 43.8872L14.4755 33.6152L11.6205 36.4168L21.7005 46.6888L24.5555 43.8872ZM13.048 37.016H31.384V33.016H13.048V37.016ZM31.384 37.016C34.7651 37.016 37.6766 36.2641 39.6784 34.3493L36.9136 31.4587C35.9714 32.3599 34.2749 33.016 31.384 33.016V37.016ZM39.6475 34.3783C41.6667 32.5273 42.6 30.034 42.6 27.144H38.6C38.6 29.118 37.9973 30.4647 36.9446 31.4297L39.6475 34.3783ZM42.6 27.144C42.6 24.254 41.6667 21.7607 39.6475 19.9097L36.9446 22.8583C37.9973 23.8233 38.6 25.17 38.6 27.144H42.6ZM39.6784 19.9387C37.6766 18.0239 34.7651 17.272 31.384 17.272V21.272C34.2749 21.272 35.9714 21.9281 36.9136 22.8293L39.6784 19.9387ZM31.384 17.272H13.048V21.272H31.384V17.272ZM14.4755 20.6728L24.5555 10.4008L21.7005 7.59919L11.6205 17.8712L14.4755 20.6728ZM21.128 9V45.288H25.128V9H21.128ZM91.6143 26.76V24.76H89.6143V26.76H91.6143ZM121.566 26.76H123.566V24.76H121.566V26.76ZM121.566 43.08V45.08H123.566V43.08H121.566ZM91.6143 43.08H89.6143V45.08H91.6143V43.08ZM93.1503 51.912H91.1503V53.912H93.1503V51.912ZM126.75 51.912H128.75V49.912H126.75V51.912ZM126.75 69V71H128.75V69H126.75ZM70.8783 69H68.8783V71H70.8783V69ZM70.8783 1.8V-0.200005H68.8783V1.8H70.8783ZM125.502 1.8H127.502V-0.200005H125.502V1.8ZM125.502 18.888V20.888H127.502V18.888H125.502ZM93.1503 18.888V16.888H91.1503V18.888H93.1503ZM91.6143 28.76H121.566V24.76H91.6143V28.76ZM119.566 26.76V43.08H123.566V26.76H119.566ZM121.566 41.08H91.6143V45.08H121.566V41.08ZM93.6143 43.08V26.76H89.6143V43.08H93.6143ZM93.1503 53.912H126.75V49.912H93.1503V53.912ZM124.75 51.912V69H128.75V51.912H124.75ZM126.75 67H70.8783V71H126.75V67ZM72.8783 69V1.8H68.8783V69H72.8783ZM70.8783 3.8H125.502V-0.200005H70.8783V3.8ZM123.502 1.8V18.888H127.502V1.8H123.502ZM125.502 16.888H93.1503V20.888H125.502V16.888ZM91.1503 18.888V51.912H95.1503V18.888H91.1503ZM135.472 69H133.472V71H135.472V69ZM135.472 1.8V-0.200005H133.472V1.8H135.472ZM184.048 4.872L183.226 6.69538L183.236 6.69962L184.048 4.872ZM194.704 13.704L193.027 14.794L193.031 14.8004L193.036 14.8069L194.704 13.704ZM194.704 40.584L196.364 41.7L196.368 41.6934L196.372 41.6869L194.704 40.584ZM184.048 49.128L183.257 47.291L183.248 47.2951L184.048 49.128ZM148.048 52.104L146.691 50.6349L142.936 54.104H148.048V52.104ZM158.128 42.792H160.128V38.2216L156.771 41.3229L158.128 42.792ZM158.128 69V71H160.128V69H158.128ZM175.696 69L174.038 70.1184L174.633 71H175.696V69ZM159.184 44.52V42.52H155.423L157.526 45.6384L159.184 44.52ZM183.184 44.52L184.836 43.3927L184.241 42.52H183.184V44.52ZM199.888 69V71H203.674L201.54 67.8727L199.888 69ZM158.128 45.288L156.701 46.6888L160.128 50.1816V45.288H158.128ZM148.048 35.016V33.016H143.283L146.621 36.4168L148.048 35.016ZM173.296 32.904L171.945 31.4297L171.929 31.444L171.914 31.4587L173.296 32.904ZM173.296 21.384L171.914 22.8293L171.929 22.844L171.945 22.8583L173.296 21.384ZM148.048 19.272L146.621 17.8712L143.283 21.272H148.048V19.272ZM158.128 9H160.128V4.10641L156.701 7.59919L158.128 9ZM137.472 69V1.8H133.472V69H137.472ZM135.472 3.8H167.824V-0.200005H135.472V3.8ZM167.824 3.8C173.884 3.8 178.998 4.78976 183.226 6.69536L184.87 3.04863C180.01 0.858228 174.308 -0.200005 167.824 -0.200005V3.8ZM183.236 6.69962C187.527 8.607 190.763 11.3107 193.027 14.794L196.381 12.614C193.653 8.41727 189.785 5.23299 184.86 3.04437L183.236 6.69962ZM193.036 14.8069C195.285 18.21 196.448 22.2936 196.448 27.144H200.448C200.448 21.6264 199.115 16.75 196.372 12.6011L193.036 14.8069ZM196.448 27.144C196.448 31.9944 195.285 36.078 193.036 39.4811L196.372 41.6869C199.115 37.538 200.448 32.6616 200.448 27.144H196.448ZM193.044 39.468C190.788 42.8235 187.557 45.4399 183.257 47.291L184.839 50.965C189.755 48.8481 193.628 45.7685 196.364 41.7L193.044 39.468ZM183.248 47.2951C179.014 49.1438 173.891 50.104 167.824 50.104V54.104C174.301 54.104 179.994 53.0802 184.848 50.9609L183.248 47.2951ZM167.824 50.104H148.048V54.104H167.824V50.104ZM149.405 53.5731L159.485 44.2611L156.771 41.3229L146.691 50.6349L149.405 53.5731ZM156.128 42.792V69H160.128V42.792H156.128ZM158.128 67H135.472V71H158.128V67ZM177.354 67.8816L160.842 43.4016L157.526 45.6384L174.038 70.1184L177.354 67.8816ZM159.184 46.52H183.184V42.52H159.184V46.52ZM181.532 45.6473L198.236 70.1273L201.54 67.8727L184.836 43.3927L181.532 45.6473ZM199.888 67H175.696V71H199.888V67ZM159.555 43.8872L149.475 33.6152L146.621 36.4168L156.701 46.6888L159.555 43.8872ZM148.048 37.016H166.384V33.016H148.048V37.016ZM166.384 37.016C169.765 37.016 172.677 36.2641 174.678 34.3493L171.914 31.4587C170.971 32.3599 169.275 33.016 166.384 33.016V37.016ZM174.647 34.3783C176.667 32.5273 177.6 30.034 177.6 27.144H173.6C173.6 29.118 172.997 30.4647 171.945 31.4297L174.647 34.3783ZM177.6 27.144C177.6 24.254 176.667 21.7607 174.647 19.9097L171.945 22.8583C172.997 23.8233 173.6 25.17 173.6 27.144H177.6ZM174.678 19.9387C172.677 18.0239 169.765 17.272 166.384 17.272V21.272C169.275 21.272 170.971 21.9281 171.914 22.8293L174.678 19.9387ZM166.384 17.272H148.048V21.272H166.384V17.272ZM149.475 20.6728L159.555 10.4008L156.701 7.59919L146.621 17.8712L149.475 20.6728ZM156.128 9V45.288H160.128V9H156.128ZM227.067 67.944L226.365 69.8167L226.373 69.8198L227.067 67.944ZM215.067 60.648L213.695 62.1028L213.702 62.1097L213.71 62.1165L215.067 60.648ZM207.099 49.416L205.264 50.2104L205.269 50.2219L205.274 50.2333L207.099 49.416ZM207.099 21.384L205.274 20.5666L205.268 20.5795L207.099 21.384ZM215.067 10.248L216.425 11.7165L216.432 11.7097L216.44 11.7028L215.067 10.248ZM227.067 2.856L226.373 0.980173L226.365 0.98334L227.067 2.856ZM257.403 2.856L256.701 4.72866L256.701 4.72866L257.403 2.856ZM269.403 10.248L268.031 11.7028L268.038 11.7097L268.046 11.7165L269.403 10.248ZM277.275 21.384L275.44 22.1784L275.447 22.1951L275.455 22.2116L277.275 21.384ZM277.275 49.416L275.45 48.5987L275.445 48.6101L275.44 48.6216L277.275 49.416ZM269.403 60.648L270.761 62.1165L270.768 62.1097L270.776 62.1028L269.403 60.648ZM257.403 67.944L256.701 66.0713L256.701 66.0713L257.403 67.944ZM248.091 51.048L247.327 49.2L247.315 49.2048L247.303 49.2097L248.091 51.048ZM252.891 47.784L251.446 46.4016L251.445 46.403L252.891 47.784ZM256.155 42.504L258.028 43.2062L258.031 43.1969L258.035 43.1875L256.155 42.504ZM256.155 28.392L254.276 29.0755L254.279 29.0849L254.283 29.0942L256.155 28.392ZM252.891 23.112L251.414 24.4605L251.445 24.4941L251.477 24.5262L252.891 23.112ZM248.091 19.752L247.303 21.5903L247.315 21.5952L247.327 21.6L248.091 19.752ZM236.283 19.752L235.519 17.904L235.507 17.9088L235.495 17.9137L236.283 19.752ZM231.483 23.112L230.038 21.7296L230.037 21.731L231.483 23.112ZM228.315 28.392L230.188 29.0942L230.191 29.0849L230.195 29.0755L228.315 28.392ZM228.315 42.504L226.436 43.1875L226.439 43.1969L226.443 43.2062L228.315 42.504ZM231.483 47.784L230.006 49.1325L230.037 49.1661L230.069 49.1982L231.483 47.784ZM236.283 51.048L235.495 52.8863L235.507 52.8912L235.519 52.896L236.283 51.048ZM242.235 68.536C237.01 68.536 232.191 67.7068 227.761 66.0682L226.373 69.8198C231.287 71.6372 236.58 72.536 242.235 72.536V68.536ZM227.769 66.0713C223.388 64.4283 219.615 62.1283 216.425 59.1795L213.71 62.1165C217.304 65.4397 221.53 68.0037 226.365 69.8167L227.769 66.0713ZM216.44 59.1932C213.241 56.1752 210.738 52.6483 208.925 48.5987L205.274 50.2333C207.301 54.7597 210.11 58.7208 213.695 62.1028L216.44 59.1932ZM208.935 48.6216C207.196 44.6044 206.315 40.2054 206.315 35.4H202.315C202.315 40.7066 203.291 45.6516 205.264 50.2104L208.935 48.6216ZM206.315 35.4C206.315 30.5265 207.197 26.1324 208.93 22.1885L205.268 20.5795C203.289 25.0836 202.315 30.0335 202.315 35.4H206.315ZM208.925 22.2013C210.736 18.1554 213.235 14.6661 216.425 11.7165L213.71 8.77945C210.116 12.1019 207.302 16.0366 205.274 20.5667L208.925 22.2013ZM216.44 11.7028C219.628 8.69522 223.396 6.36855 227.769 4.72866L226.365 0.98334C221.522 2.79944 217.291 5.40076 213.695 8.79321L216.44 11.7028ZM227.761 4.73181C232.191 3.09319 237.01 2.264 242.235 2.264V-1.736C236.58 -1.736 231.287 -0.837192 226.373 0.980192L227.761 4.73181ZM242.235 2.264C247.528 2.264 252.343 3.09424 256.701 4.72866L258.105 0.983341C253.248 -0.838242 247.951 -1.736 242.235 -1.736V2.264ZM256.701 4.72866C261.074 6.36855 264.843 8.69522 268.031 11.7028L270.776 8.79321C267.18 5.40076 262.948 2.79944 258.105 0.98334L256.701 4.72866ZM268.046 11.7165C271.231 14.6613 273.693 18.1429 275.44 22.1784L279.111 20.5896C277.145 16.0491 274.36 12.1067 270.761 8.77945L268.046 11.7165ZM275.455 22.2116C277.245 26.1499 278.155 30.5357 278.155 35.4H282.155C282.155 30.0243 281.146 25.0661 279.096 20.5564L275.455 22.2116ZM278.155 35.4C278.155 40.1961 277.246 44.5869 275.45 48.5987L279.101 50.2333C281.144 45.6691 282.155 40.7159 282.155 35.4H278.155ZM275.44 48.6216C273.691 52.6608 271.225 56.18 268.031 59.1932L270.776 62.1028C274.366 58.716 277.147 54.7472 279.111 50.2104L275.44 48.6216ZM268.046 59.1795C264.856 62.1283 261.082 64.4283 256.701 66.0713L258.105 69.8167C262.94 68.0037 267.167 65.4397 270.761 62.1165L268.046 59.1795ZM256.701 66.0713C252.343 67.7058 247.528 68.536 242.235 68.536V72.536C247.951 72.536 253.248 71.6382 258.105 69.8167L256.701 66.0713ZM242.235 54.2C244.595 54.2 246.818 53.7696 248.879 52.8863L247.303 49.2097C245.78 49.8624 244.099 50.2 242.235 50.2V54.2ZM248.856 52.896C250.961 52.025 252.795 50.7809 254.338 49.165L251.445 46.403C250.299 47.6031 248.934 48.535 247.327 49.2L248.856 52.896ZM254.337 49.1664C255.945 47.4849 257.172 45.4886 258.028 43.2062L254.283 41.8018C253.602 43.6154 252.653 45.1391 251.446 46.4016L254.337 49.1664ZM258.035 43.1875C258.895 40.8231 259.307 38.2188 259.307 35.4H255.307C255.307 37.8292 254.952 39.9609 254.276 41.8205L258.035 43.1875ZM259.307 35.4C259.307 32.5828 258.895 30.0022 258.028 27.6898L254.283 29.0942C254.951 30.8778 255.307 32.9692 255.307 35.4H259.307ZM258.035 27.7085C257.18 25.3573 255.945 23.3375 254.305 21.6978L251.477 24.5262C252.653 25.7025 253.595 27.2027 254.276 29.0755L258.035 27.7085ZM254.368 21.7635C252.825 20.073 250.981 18.7833 248.856 17.904L247.327 21.6C248.914 22.2567 250.27 23.207 251.414 24.4605L254.368 21.7635ZM248.879 17.9137C246.818 17.0304 244.595 16.6 242.235 16.6V20.6C244.099 20.6 245.78 20.9376 247.303 21.5903L248.879 17.9137ZM242.235 16.6C239.875 16.6 237.629 17.0305 235.519 17.904L237.048 21.6C238.649 20.9375 240.372 20.6 242.235 20.6V16.6ZM235.495 17.9137C233.445 18.7926 231.624 20.0718 230.038 21.7296L232.929 24.4944C234.159 23.2082 235.538 22.2474 237.071 21.5903L235.495 17.9137ZM230.037 21.731C228.474 23.3677 227.284 25.3765 226.436 27.7085L230.195 29.0755C230.883 27.1835 231.804 25.6723 232.93 24.493L230.037 21.731ZM226.443 27.6898C225.575 30.0022 225.163 32.5828 225.163 35.4H229.163C229.163 32.9692 229.519 30.8778 230.188 29.0942L226.443 27.6898ZM225.163 35.4C225.163 38.2188 225.576 40.8231 226.436 43.1875L230.195 41.8205C229.519 39.9609 229.163 37.8292 229.163 35.4H225.163ZM226.443 43.2062C227.291 45.4696 228.474 47.4548 230.006 49.1325L232.96 46.4355C231.804 45.1692 230.875 43.6344 230.188 41.8018L226.443 43.2062ZM230.069 49.1982C231.653 50.7822 233.465 52.0159 235.495 52.8863L237.071 49.2097C235.518 48.5441 234.129 47.6018 232.897 46.3698L230.069 49.1982ZM235.519 52.896C237.629 53.7695 239.875 54.2 242.235 54.2V50.2C240.372 50.2 238.649 49.8625 237.048 49.2L235.519 52.896Z" fill="white"/>
</svg>
