<svg width="405" height="68" viewBox="0 0 405 68" fill="none" xmlns="http://www.w3.org/2000/svg">
<path d="M20.064 68H18.064V70H20.064V68ZM20.064 18.368H22.064V16.368H20.064V18.368ZM0.384 18.368H-1.616V20.368H0.384V18.368ZM0.384 0.799995V-1.2H-1.616V0.799995H0.384ZM62.4 0.799995H64.4V-1.2H62.4V0.799995ZM62.4 18.368V20.368H64.4V18.368H62.4ZM42.72 18.368V16.368H40.72V18.368H42.72ZM42.72 68V70H44.72V68H42.72ZM22.064 68V18.368H18.064V68H22.064ZM20.064 16.368H0.384V20.368H20.064V16.368ZM2.384 18.368V0.799995H-1.616V18.368H2.384ZM0.384 2.8H62.4V-1.2H0.384V2.8ZM60.4 0.799995V18.368H64.4V0.799995H60.4ZM62.4 16.368H42.72V20.368H62.4V16.368ZM40.72 18.368V68H44.72V18.368H40.72ZM42.72 66H20.064V70H42.72V66ZM68.2845 68H66.2845V70H68.2845V68ZM68.2845 0.799995V-1.2H66.2845V0.799995H68.2845ZM116.861 3.872L116.039 5.69538L116.048 5.69962L116.861 3.872ZM127.517 12.704L125.84 13.794L125.844 13.8004L125.848 13.8069L127.517 12.704ZM127.517 39.584L129.176 40.7L129.181 40.6934L129.185 40.6869L127.517 39.584ZM116.861 48.128L116.07 46.291L116.06 46.2951L116.861 48.128ZM80.8605 51.104L79.5034 49.6349L75.7482 53.104H80.8605V51.104ZM90.9405 41.792H92.9405V37.2216L89.5834 40.3229L90.9405 41.792ZM90.9405 68V70H92.9405V68H90.9405ZM108.509 68L106.85 69.1184L107.445 70H108.509V68ZM91.9965 43.52V41.52H88.235L90.3384 44.6384L91.9965 43.52ZM115.997 43.52L117.649 42.3927L117.053 41.52H115.997V43.52ZM132.701 68V70H136.486L134.353 66.8727L132.701 68ZM90.9405 44.288L89.513 45.6888L92.9405 49.1816V44.288H90.9405ZM80.8605 34.016V32.016H76.0958L79.433 35.4168L80.8605 34.016ZM106.109 31.904L104.757 30.4297L104.741 30.444L104.726 30.4587L106.109 31.904ZM106.109 20.384L104.726 21.8293L104.741 21.844L104.757 21.8583L106.109 20.384ZM80.8605 18.272L79.433 16.8712L76.0958 20.272H80.8605V18.272ZM90.9405 8H92.9405V3.10641L89.513 6.59919L90.9405 8ZM70.2845 68V0.799995H66.2845V68H70.2845ZM68.2845 2.8H100.637V-1.2H68.2845V2.8ZM100.637 2.8C106.696 2.8 111.811 3.78976 116.039 5.69536L117.682 2.04863C112.822 -0.141772 107.121 -1.2 100.637 -1.2V2.8ZM116.048 5.69962C120.34 7.607 123.576 10.3107 125.84 13.794L129.193 11.614C126.466 7.41727 122.597 4.23299 117.673 2.04437L116.048 5.69962ZM125.848 13.8069C128.098 17.21 129.261 21.2936 129.261 26.144H133.261C133.261 20.6264 131.927 15.75 129.185 11.6011L125.848 13.8069ZM129.261 26.144C129.261 30.9944 128.098 35.078 125.848 38.4811L129.185 40.6869C131.927 36.538 133.261 31.6616 133.261 26.144H129.261ZM125.857 38.468C123.601 41.8235 120.369 44.4399 116.07 46.291L117.651 49.965C122.568 47.8481 126.44 44.7685 129.176 40.7L125.857 38.468ZM116.06 46.2951C111.826 48.1438 106.703 49.104 100.637 49.104V53.104C107.114 53.104 112.807 52.0802 117.661 49.9609L116.06 46.2951ZM100.637 49.104H80.8605V53.104H100.637V49.104ZM82.2176 52.5731L92.2976 43.2611L89.5834 40.3229L79.5034 49.6349L82.2176 52.5731ZM88.9405 41.792V68H92.9405V41.792H88.9405ZM90.9405 66H68.2845V70H90.9405V66ZM110.167 66.8816L93.6546 42.4016L90.3384 44.6384L106.85 69.1184L110.167 66.8816ZM91.9965 45.52H115.997V41.52H91.9965V45.52ZM114.344 44.6473L131.048 69.1273L134.353 66.8727L117.649 42.3927L114.344 44.6473ZM132.701 66H108.509V70H132.701V66ZM92.368 42.8872L82.288 32.6152L79.433 35.4168L89.513 45.6888L92.368 42.8872ZM80.8605 36.016H99.1965V32.016H80.8605V36.016ZM99.1965 36.016C102.578 36.016 105.489 35.2641 107.491 33.3493L104.726 30.4587C103.784 31.3599 102.087 32.016 99.1965 32.016V36.016ZM107.46 33.3783C109.479 31.5273 110.413 29.034 110.413 26.144H106.413C106.413 28.118 105.81 29.4647 104.757 30.4297L107.46 33.3783ZM110.413 26.144C110.413 23.254 109.479 20.7607 107.46 18.9097L104.757 21.8583C105.81 22.8233 106.413 24.17 106.413 26.144H110.413ZM107.491 18.9387C105.489 17.0239 102.578 16.272 99.1965 16.272V20.272C102.087 20.272 103.784 20.9281 104.726 21.8293L107.491 18.9387ZM99.1965 16.272H80.8605V20.272H99.1965V16.272ZM82.288 19.6728L92.368 9.40081L89.513 6.59919L79.433 16.8712L82.288 19.6728ZM88.9405 8V44.288H92.9405V8H88.9405ZM132.52 68L130.687 67.1989L129.463 70H132.52V68ZM161.896 0.799995V-1.2H160.587L160.063 -0.00109283L161.896 0.799995ZM184.168 0.799995L186 -0.00109281L185.476 -1.2H184.168V0.799995ZM213.544 68V70H216.601L215.376 67.1989L213.544 68ZM190.12 68L188.253 68.7175L188.746 70H190.12V68ZM168.424 11.552V9.552H165.512L166.557 12.2695L168.424 11.552ZM177.256 11.552L179.123 12.2695L180.167 9.552H177.256V11.552ZM155.56 68V70H156.934L157.427 68.7175L155.56 68ZM149.992 56.288L148.106 55.6224L147.165 58.288H149.992V56.288ZM155.752 39.968V37.968H154.337L153.866 39.3024L155.752 39.968ZM186.664 39.968L188.55 39.3024L188.079 37.968H186.664V39.968ZM192.424 56.288V58.288H195.251L194.31 55.6224L192.424 56.288ZM134.352 68.8011L163.728 1.60108L160.063 -0.00109283L130.687 67.1989L134.352 68.8011ZM161.896 2.8H184.168V-1.2H161.896V2.8ZM182.335 1.60108L211.711 68.8011L215.376 67.1989L186 -0.00109281L182.335 1.60108ZM213.544 66H190.12V70H213.544V66ZM191.987 67.2825L170.291 10.8345L166.557 12.2695L188.253 68.7175L191.987 67.2825ZM168.424 13.552H177.256V9.552H168.424V13.552ZM175.389 10.8345L153.693 67.2825L157.427 68.7175L179.123 12.2695L175.389 10.8345ZM155.56 66H132.52V70H155.56V66ZM151.878 56.9536L157.638 40.6336L153.866 39.3024L148.106 55.6224L151.878 56.9536ZM155.752 41.968H186.664V37.968H155.752V41.968ZM184.778 40.6336L190.538 56.9536L194.31 55.6224L188.55 39.3024L184.778 40.6336ZM192.424 54.288H149.992V58.288H192.424V54.288ZM234.436 68L232.594 68.7789L233.11 70H234.436V68ZM206.02 0.799995V-1.2H203.003L204.178 1.57893L206.02 0.799995ZM230.404 0.799995L232.256 0.0448045L231.748 -1.2H230.404V0.799995ZM253.54 57.536V59.536H256.515L255.392 56.7808L253.54 57.536ZM239.044 57.536L237.2 56.7621L236.036 59.536H239.044V57.536ZM262.852 0.799995V-1.2H261.522L261.008 0.0261141L262.852 0.799995ZM285.124 0.799995L286.966 1.57893L288.141 -1.2H285.124V0.799995ZM256.708 68V70H258.033L258.55 68.7789L256.708 68ZM236.278 67.2211L207.862 0.0210589L204.178 1.57893L232.594 68.7789L236.278 67.2211ZM206.02 2.8H230.404V-1.2H206.02V2.8ZM228.552 1.55519L251.688 58.2912L255.392 56.7808L232.256 0.0448045L228.552 1.55519ZM253.54 55.536H239.044V59.536H253.54V55.536ZM240.888 58.3099L264.696 1.57388L261.008 0.0261141L237.2 56.7621L240.888 58.3099ZM262.852 2.8H285.124V-1.2H262.852V2.8ZM283.282 0.0210587L254.866 67.2211L258.55 68.7789L286.966 1.57893L283.282 0.0210587ZM256.708 66H234.436V70H256.708V66ZM308.114 25.76V23.76H306.114V25.76H308.114ZM338.066 25.76H340.066V23.76H338.066V25.76ZM338.066 42.08V44.08H340.066V42.08H338.066ZM308.114 42.08H306.114V44.08H308.114V42.08ZM309.65 50.912H307.65V52.912H309.65V50.912ZM343.25 50.912H345.25V48.912H343.25V50.912ZM343.25 68V70H345.25V68H343.25ZM287.378 68H285.378V70H287.378V68ZM287.378 0.799995V-1.2H285.378V0.799995H287.378ZM342.002 0.799995H344.002V-1.2H342.002V0.799995ZM342.002 17.888V19.888H344.002V17.888H342.002ZM309.65 17.888V15.888H307.65V17.888H309.65ZM308.114 27.76H338.066V23.76H308.114V27.76ZM336.066 25.76V42.08H340.066V25.76H336.066ZM338.066 40.08H308.114V44.08H338.066V40.08ZM310.114 42.08V25.76H306.114V42.08H310.114ZM309.65 52.912H343.25V48.912H309.65V52.912ZM341.25 50.912V68H345.25V50.912H341.25ZM343.25 66H287.378V70H343.25V66ZM289.378 68V0.799995H285.378V68H289.378ZM287.378 2.8H342.002V-1.2H287.378V2.8ZM340.002 0.799995V17.888H344.002V0.799995H340.002ZM342.002 15.888H309.65V19.888H342.002V15.888ZM307.65 17.888V50.912H311.65V17.888H307.65ZM351.972 68H349.972V70H351.972V68ZM351.972 0.799995V-1.2H349.972V0.799995H351.972ZM374.628 0.799995H376.628V-1.2H374.628V0.799995ZM374.628 50.432H372.628V52.432H374.628V50.432ZM404.964 50.432H406.964V48.432H404.964V50.432ZM404.964 68V70H406.964V68H404.964ZM353.972 68V0.799995H349.972V68H353.972ZM351.972 2.8H374.628V-1.2H351.972V2.8ZM372.628 0.799995V50.432H376.628V0.799995H372.628ZM374.628 52.432H404.964V48.432H374.628V52.432ZM402.964 50.432V68H406.964V50.432H402.964ZM404.964 66H351.972V70H404.964V66Z" fill="white"/>
</svg>
