<svg width="9" height="9" viewBox="0 0 9 9" fill="none" xmlns="http://www.w3.org/2000/svg">
<path d="M1.584 9V0.599999H4.884C5.964 0.599999 6.816 0.839999 7.44 1.32C8.064 1.792 8.376 2.484 8.376 3.396C8.376 4.308 8.064 5.004 7.44 5.484C6.816 5.964 5.964 6.204 4.884 6.204H2.256L2.796 5.64V9H1.584ZM2.796 5.76L2.256 5.208H4.884C5.62 5.208 6.184 5.052 6.576 4.74C6.968 4.428 7.164 3.984 7.164 3.408C7.164 2.84 6.968 2.404 6.576 2.1C6.184 1.796 5.62 1.644 4.884 1.644H2.256L2.796 1.044V5.76ZM0.36 7.596V6.912H5.46V7.596H0.36Z" fill="white"/>
</svg>
